<mxfile host="app.diagrams.net" modified="2022-10-16T05:04:32.564Z" agent="5.0 (Macintosh; Intel Mac OS X 10_15_7) AppleWebKit/537.36 (KHTML, like Gecko) Chrome/105.0.0.0 Safari/537.36" etag="xDQsD2zFQHA1chvaDZVw" version="20.4.1" type="github">
  <diagram id="LcumRcBRr6USi84tn0P9" name="Page-1">
    <mxGraphModel dx="1042" dy="507" grid="1" gridSize="10" guides="1" tooltips="1" connect="1" arrows="1" fold="1" page="1" pageScale="1" pageWidth="827" pageHeight="1169" math="0" shadow="0">
      <root>
        <mxCell id="0" />
        <mxCell id="1" parent="0" />
        <mxCell id="bTGz799TzCsgq-tL2QBZ-2" value="AWS Cloud" style="points=[[0,0],[0.25,0],[0.5,0],[0.75,0],[1,0],[1,0.25],[1,0.5],[1,0.75],[1,1],[0.75,1],[0.5,1],[0.25,1],[0,1],[0,0.75],[0,0.5],[0,0.25]];outlineConnect=0;gradientColor=none;html=1;whiteSpace=wrap;fontSize=12;fontStyle=0;container=1;pointerEvents=0;collapsible=0;recursiveResize=0;shape=mxgraph.aws4.group;grIcon=mxgraph.aws4.group_vpc;strokeColor=#248814;fillColor=none;verticalAlign=top;align=left;spacingLeft=30;fontColor=#AAB7B8;dashed=0;" parent="1" vertex="1">
          <mxGeometry x="30" y="20" width="890" height="510" as="geometry" />
        </mxCell>
        <mxCell id="POhj-LKM1kwhmbA6X7bR-6" value="" style="edgeStyle=orthogonalEdgeStyle;rounded=0;orthogonalLoop=1;jettySize=auto;html=1;strokeColor=#0000FF;entryX=0;entryY=0.5;entryDx=0;entryDy=0;" parent="bTGz799TzCsgq-tL2QBZ-2" source="POhj-LKM1kwhmbA6X7bR-1" target="bn0mWCa8RgHSU4eN2y1E-1" edge="1">
          <mxGeometry relative="1" as="geometry">
            <mxPoint x="214" y="330" as="targetPoint" />
          </mxGeometry>
        </mxCell>
        <mxCell id="POhj-LKM1kwhmbA6X7bR-1" value="Amazon S3" style="sketch=0;outlineConnect=0;fontColor=#232F3E;gradientColor=none;strokeColor=#ffffff;fillColor=#232F3E;dashed=0;verticalLabelPosition=middle;verticalAlign=bottom;align=center;html=1;whiteSpace=wrap;fontSize=10;fontStyle=1;spacing=3;shape=mxgraph.aws4.productIcon;prIcon=mxgraph.aws4.s3;" parent="bTGz799TzCsgq-tL2QBZ-2" vertex="1">
          <mxGeometry x="30" y="290" width="80" height="100" as="geometry" />
        </mxCell>
        <mxCell id="POhj-LKM1kwhmbA6X7bR-8" style="edgeStyle=orthogonalEdgeStyle;rounded=1;orthogonalLoop=1;jettySize=auto;html=1;strokeColor=#0000FF;entryX=0;entryY=0.5;entryDx=0;entryDy=0;entryPerimeter=0;exitX=1;exitY=0.5;exitDx=0;exitDy=0;" parent="bTGz799TzCsgq-tL2QBZ-2" source="bn0mWCa8RgHSU4eN2y1E-1" target="V1oselqunodWBxak1BEi-46" edge="1">
          <mxGeometry relative="1" as="geometry">
            <mxPoint x="430" y="335" as="targetPoint" />
            <mxPoint x="294" y="430" as="sourcePoint" />
          </mxGeometry>
        </mxCell>
        <mxCell id="V1oselqunodWBxak1BEi-11" value="Search App" style="rounded=1;whiteSpace=wrap;html=1;" parent="bTGz799TzCsgq-tL2QBZ-2" vertex="1">
          <mxGeometry x="695" y="323.25" width="80" height="63.75" as="geometry" />
        </mxCell>
        <mxCell id="V1oselqunodWBxak1BEi-21" value="Search App POD" style="text;html=1;align=center;verticalAlign=middle;resizable=0;points=[];autosize=1;strokeColor=none;fillColor=none;" parent="bTGz799TzCsgq-tL2QBZ-2" vertex="1">
          <mxGeometry x="680" y="412" width="110" height="20" as="geometry" />
        </mxCell>
        <mxCell id="V1oselqunodWBxak1BEi-24" value="Corpus Data" style="text;html=1;align=center;verticalAlign=middle;resizable=0;points=[];autosize=1;strokeColor=none;fillColor=none;" parent="bTGz799TzCsgq-tL2QBZ-2" vertex="1">
          <mxGeometry x="30" y="380" width="80" height="20" as="geometry" />
        </mxCell>
        <mxCell id="V1oselqunodWBxak1BEi-46" value="" style="sketch=0;points=[[0,0,0],[0.25,0,0],[0.5,0,0],[0.75,0,0],[1,0,0],[0,1,0],[0.25,1,0],[0.5,1,0],[0.75,1,0],[1,1,0],[0,0.25,0],[0,0.5,0],[0,0.75,0],[1,0.25,0],[1,0.5,0],[1,0.75,0]];outlineConnect=0;fontColor=#232F3E;gradientColor=#945DF2;gradientDirection=north;fillColor=#5A30B5;strokeColor=#ffffff;dashed=0;verticalLabelPosition=bottom;verticalAlign=top;align=center;html=1;fontSize=12;fontStyle=0;aspect=fixed;shape=mxgraph.aws4.resourceIcon;resIcon=mxgraph.aws4.elasticsearch_service;" parent="bTGz799TzCsgq-tL2QBZ-2" vertex="1">
          <mxGeometry x="428" y="300" width="78" height="78" as="geometry" />
        </mxCell>
        <mxCell id="V1oselqunodWBxak1BEi-50" value="" style="edgeStyle=orthogonalEdgeStyle;html=1;endArrow=none;elbow=vertical;startArrow=block;startFill=1;strokeColor=#000000;rounded=1;entryX=0;entryY=0.25;entryDx=0;entryDy=0;exitX=1;exitY=0.5;exitDx=0;exitDy=0;exitPerimeter=0;" parent="bTGz799TzCsgq-tL2QBZ-2" source="V1oselqunodWBxak1BEi-46" target="V1oselqunodWBxak1BEi-11" edge="1">
          <mxGeometry width="100" relative="1" as="geometry">
            <mxPoint x="460" y="260" as="sourcePoint" />
            <mxPoint x="560" y="260" as="targetPoint" />
          </mxGeometry>
        </mxCell>
        <mxCell id="V1oselqunodWBxak1BEi-51" value="" style="edgeStyle=orthogonalEdgeStyle;html=1;endArrow=block;elbow=vertical;startArrow=none;endFill=1;strokeColor=#0000FF;rounded=1;exitX=1;exitY=0.75;exitDx=0;exitDy=0;exitPerimeter=0;entryX=0;entryY=0.5;entryDx=0;entryDy=0;" parent="bTGz799TzCsgq-tL2QBZ-2" source="V1oselqunodWBxak1BEi-46" target="V1oselqunodWBxak1BEi-11" edge="1">
          <mxGeometry width="100" relative="1" as="geometry">
            <mxPoint x="460" y="260" as="sourcePoint" />
            <mxPoint x="560" y="260" as="targetPoint" />
            <Array as="points">
              <mxPoint x="506" y="355" />
            </Array>
          </mxGeometry>
        </mxCell>
        <mxCell id="bn0mWCa8RgHSU4eN2y1E-1" value="Data Loading" style="rounded=0;whiteSpace=wrap;html=1;" parent="bTGz799TzCsgq-tL2QBZ-2" vertex="1">
          <mxGeometry x="200" y="310" width="120" height="60" as="geometry" />
        </mxCell>
        <mxCell id="iDX7eHp0CJAa4nkrkzap-1" value="Amazon OpenSearch Service" style="text;html=1;align=center;verticalAlign=middle;resizable=0;points=[];autosize=1;strokeColor=none;fillColor=none;" parent="bTGz799TzCsgq-tL2QBZ-2" vertex="1">
          <mxGeometry x="376" y="385" width="180" height="30" as="geometry" />
        </mxCell>
        <mxCell id="iDX7eHp0CJAa4nkrkzap-2" style="edgeStyle=orthogonalEdgeStyle;rounded=0;orthogonalLoop=1;jettySize=auto;html=1;entryX=1;entryY=0.25;entryDx=0;entryDy=0;strokeColor=#000000;exitX=0;exitY=0;exitDx=0;exitDy=0;" parent="1" source="V1oselqunodWBxak1BEi-6" target="V1oselqunodWBxak1BEi-11" edge="1">
          <mxGeometry relative="1" as="geometry">
            <mxPoint x="990" y="359" as="sourcePoint" />
          </mxGeometry>
        </mxCell>
        <mxCell id="V1oselqunodWBxak1BEi-6" value="" style="aspect=fixed;perimeter=ellipsePerimeter;html=1;align=center;shadow=0;dashed=0;spacingTop=3;image;image=img/lib/active_directory/laptop_client.svg;" parent="1" vertex="1">
          <mxGeometry x="996.5" y="325.13" width="86.4" height="96" as="geometry" />
        </mxCell>
        <mxCell id="V1oselqunodWBxak1BEi-20" value="Client" style="text;html=1;align=center;verticalAlign=middle;resizable=0;points=[];autosize=1;strokeColor=none;fillColor=none;" parent="1" vertex="1">
          <mxGeometry x="1014.7" y="430" width="50" height="20" as="geometry" />
        </mxCell>
        <mxCell id="V1oselqunodWBxak1BEi-54" value="" style="endArrow=none;html=1;rounded=1;strokeColor=#000000;" parent="1" edge="1">
          <mxGeometry width="50" height="50" relative="1" as="geometry">
            <mxPoint x="945" y="30" as="sourcePoint" />
            <mxPoint x="995" y="30" as="targetPoint" />
          </mxGeometry>
        </mxCell>
        <mxCell id="V1oselqunodWBxak1BEi-56" value="Query Data" style="edgeLabel;html=1;align=center;verticalAlign=middle;resizable=0;points=[];" parent="V1oselqunodWBxak1BEi-54" vertex="1" connectable="0">
          <mxGeometry x="0.12" relative="1" as="geometry">
            <mxPoint x="57" as="offset" />
          </mxGeometry>
        </mxCell>
        <mxCell id="V1oselqunodWBxak1BEi-57" value="" style="endArrow=none;html=1;rounded=1;strokeColor=#0000FF;" parent="1" edge="1">
          <mxGeometry width="50" height="50" relative="1" as="geometry">
            <mxPoint x="945" y="60" as="sourcePoint" />
            <mxPoint x="995" y="60" as="targetPoint" />
          </mxGeometry>
        </mxCell>
        <mxCell id="V1oselqunodWBxak1BEi-58" value="Text Data" style="edgeLabel;html=1;align=center;verticalAlign=middle;resizable=0;points=[];" parent="V1oselqunodWBxak1BEi-57" vertex="1" connectable="0">
          <mxGeometry x="0.12" relative="1" as="geometry">
            <mxPoint x="57" as="offset" />
          </mxGeometry>
        </mxCell>
        <mxCell id="iDX7eHp0CJAa4nkrkzap-4" style="edgeStyle=orthogonalEdgeStyle;rounded=0;orthogonalLoop=1;jettySize=auto;html=1;exitX=1;exitY=0.75;exitDx=0;exitDy=0;strokeColor=#0000FF;entryX=0;entryY=1;entryDx=0;entryDy=0;" parent="1" source="V1oselqunodWBxak1BEi-11" target="V1oselqunodWBxak1BEi-6" edge="1">
          <mxGeometry relative="1" as="geometry">
            <mxPoint x="1000" y="394" as="targetPoint" />
          </mxGeometry>
        </mxCell>
      </root>
    </mxGraphModel>
  </diagram>
</mxfile>
